# xmcd CD database file
#
# Track frame offsets:
#        150
#        14774
#        29226
#        42957
#        54894
#        70876
#        85661
#        101935
#        116014
#        130164
#        145456
#
# Disc length: 2159 seconds
#
# Revision: 0
# Processed by: cddbd v1.5.2PL0 Copyright (c) Steve Scherf et al.
# Submitted via: CUERipper 2.1.6
#
DISCID=a1086d0b
DTITLE=High Valley - Dear Life
DYEAR=2016
DGENRE=Country
TTITLE0=Dear Life
TTITLE1=I Ain't Changin'
TTITLE2=Long Way Home
TTITLE3=Memory Makin'
TTITLE4=I Be U Be
TTITLE5=Roads We've Never Taken
TTITLE6=Don't Stop
TTITLE7=The Only
TTITLE8=Every Week's Got A Friday
TTITLE9=Soldier
TTITLE10=Young Forever
EXTD=
EXTT0=
EXTT1=
EXTT2=
EXTT3=
EXTT4=
EXTT5=
EXTT6=
EXTT7=
EXTT8=
EXTT9=
EXTT10=
PLAYORDER=
